<svg width="48" height="48" viewBox="0 0 512 512" fill="none" xmlns="http://www.w3.org/2000/svg">
  <g id="XMLID_1156_">
    <path id="XMLID_1446_" style="fill:currentColor;opacity:0.1" d="M457.5,50h-427C19.178,50,10,59.178,10,70.5v371c0,11.322,9.178,20.5,20.5,20.5h427c11.322,0,20.5-9.178,20.5-20.5v-371C478,59.178,468.822,50,457.5,50z"/>
    <path id="XMLID_1445_" style="fill:currentColor;opacity:0.05" d="M109,50H30.5C19.178,50,10,59.178,10,70.5v371c0,11.322,9.178,20.5,20.5,20.5h427c11.322,0,20.5-9.178,20.5-20.5v-371c0-11.322-9.178-20.5-20.5-20.5H379"/>
    <path id="XMLID_1410_" style="fill:currentColor;opacity:0.1" d="M457.5,50h-427C19.178,50,10,59.178,10,70.5v371c0,11.322,9.178,20.5,20.5,20.5h427c11.322,0,20.5-9.178,20.5-20.5v-371C478,59.178,468.822,50,457.5,50z"/>
    <rect id="XMLID_1498_" x="58" y="178" style="fill:#C9F3FF;opacity:0.6" width="372" height="236"/>
    <rect id="XMLID_3609_" x="132.4" y="257" style="fill:#FF5D5D" width="74.4" height="77"/>
    <path id="XMLID_2244_" style="fill:#A0E557" d="M457.5,50h-427C19.178,50,10,59.178,10,70.5V130h468V70.5C478,59.178,468.822,50,457.5,50z"/>
    <g id="XMLID_2241_">
      <path id="XMLID_2243_" style="fill:#72D8FF" d="M133,90L133,90c-11.046,0-20-8.954-20-20V30c0-11.046,8.954-20,20-20h0c11.046,0,20,8.954,20,20v40C153,81.046,144.046,90,133,90z"/>
      <path id="XMLID_2242_" style="fill:#72D8FF" d="M355,90L355,90c11.046,0,20-8.954,20-20V30c0-11.046-8.954-20-20-20h0c-11.046,0-20,8.954-20,20v40C335,81.046,343.954,90,355,90z"/>
    </g>
    <circle id="XMLID_1443_" style="fill:#FF5D5D" cx="418" cy="418" r="84">
      <animate attributeName="opacity" values="0.7;1;0.7" dur="2s" repeatCount="indefinite"/>
    </circle>
    <path style="fill:#FFFFFF" d="M446.929,393.762L416,424.691l-13.762-13.762c-3.904-3.905-10.234-3.905-14.143,0c-3.905,3.905-3.905,10.237,0,14.142l20.833,20.833c1.876,1.875,4.419,2.929,7.071,2.929s5.195-1.054,7.071-2.929l38-38c3.905-3.905,3.905-10.237,0-14.143C457.165,389.857,450.835,389.857,446.929,393.762z"/>
  </g>
</svg>
